<svg xmlns="http://www.w3.org/2000/svg" width="430" height="430" fill="none" viewBox="0 0 430 430"><g stroke-linecap="round" stroke-linejoin="round" stroke-miterlimit="10"><path stroke="#121331" stroke-width="12" d="M276.992 138.033v33.54c0 33.851-27.414 61.265-61.265 61.265h-1.454c-33.851 0-61.265-27.414-61.265-61.265v-30.01"/><path stroke="#08a88a" stroke-width="12" d="M127.906 257.916C124.954 192.261 126.486 56 214.722 56c90.615.587 91.016 134.606 86.787 201.419"/><path stroke="#08a88a" stroke-width="12" d="M281.364 98.883c1.38 21.324 3.726 37.75-4.511 42.967 0 0 .107-1.176 0-3.206-.32-10.043-4.38-41.241-39.104-59.297 0 0-12.287 45.728-88.466 63.037-1.282.32-2.671.641-4.06.855 0 0 .315-29.362 4.289-44.322"/><path stroke="#121331" stroke-width="12" d="M272.889 245.142C266.313 268.154 245.124 285 220 285h-10c-25.124 0-46.313-16.846-52.889-39.858"/><path stroke="#121331" stroke-width="12" d="M247.813 223.781v19.752h9.034c4.984 0 9.969.519 14.745 1.35 36.448 6.957 63.965 38.94 63.965 77.464v31.567a15.3 15.3 0 0 1-4.465 10.799 15.23 15.23 0 0 1-10.799 4.465h-19.418C262.351 372.189 259.858 386 241.064 386h-52.127c-18.795 0-21.287-13.811-59.812-16.822h-19.418a15.23 15.23 0 0 1-10.799-4.465 15.3 15.3 0 0 1-4.465-10.799v-31.567c0-38.524 27.517-70.507 63.965-77.464 4.776-.831 9.761-1.35 14.745-1.35h9.034v-19.751"/><path stroke="#08a88a" stroke-width="15" d="M213.871 313.648h.01m-.01 25.025h.01m.112 25.025h.01"/></g></svg>